<svg xmlns="http://www.w3.org/2000/svg" xmlns:xlink="http://www.w3.org/1999/xlink" width="500" zoomAndPan="magnify" viewBox="0 0 375 374.999991" height="500" preserveAspectRatio="xMidYMid meet" version="1.0"><defs><g/><clipPath id="ac179e26cf"><path d="M 57 9.183594 L 369.109375 9.183594 L 369.109375 90 L 57 90 Z M 57 9.183594 " clip-rule="nonzero"/></clipPath><clipPath id="92fc5f75ae"><path d="M 6.859375 218 L 319 218 L 319 297.933594 L 6.859375 297.933594 Z M 6.859375 218 " clip-rule="nonzero"/></clipPath></defs><g clip-path="url(#ac179e26cf)"><path fill="#64ccc5" d="M 116.304688 9.183594 L 369.1875 9.183594 L 310.183594 89.019531 L 57.296875 89.019531 Z M 116.304688 9.183594 " fill-opacity="1" fill-rule="evenodd"/></g><path fill="#176b87" d="M 57.296875 89.019531 L 183.738281 89.019531 L 119.753906 175.21875 L 64.195312 98.570312 Z M 57.296875 89.019531 " fill-opacity="1" fill-rule="evenodd"/><g clip-path="url(#92fc5f75ae)"><path fill="#64ccc5" d="M 259.859375 298.214844 L 6.976562 298.214844 L 66.113281 218.382812 L 318.996094 218.382812 Z M 259.859375 298.214844 " fill-opacity="1" fill-rule="evenodd"/></g><path fill="#176b87" d="M 318.996094 218.382812 L 192.550781 218.382812 L 256.410156 132.183594 L 312.097656 208.832031 Z M 318.996094 218.382812 " fill-opacity="1" fill-rule="evenodd"/><g fill="#006ab3" fill-opacity="1"><g transform="translate(16.342209, 353.624977)"><g><path d="M 14.875 0.34375 C 12.539062 0.34375 10.4375 -0.0546875 8.5625 -0.859375 C 6.695312 -1.660156 5.21875 -2.8125 4.125 -4.3125 C 3.039062 -5.820312 2.484375 -7.597656 2.453125 -9.640625 L 9.640625 -9.640625 C 9.742188 -8.265625 10.234375 -7.175781 11.109375 -6.375 C 11.992188 -5.582031 13.203125 -5.1875 14.734375 -5.1875 C 16.304688 -5.1875 17.539062 -5.5625 18.4375 -6.3125 C 19.332031 -7.0625 19.78125 -8.046875 19.78125 -9.265625 C 19.78125 -10.253906 19.472656 -11.066406 18.859375 -11.703125 C 18.253906 -12.347656 17.492188 -12.851562 16.578125 -13.21875 C 15.671875 -13.59375 14.414062 -14.003906 12.8125 -14.453125 C 10.632812 -15.085938 8.863281 -15.71875 7.5 -16.34375 C 6.144531 -16.96875 4.976562 -17.910156 4 -19.171875 C 3.03125 -20.441406 2.546875 -22.128906 2.546875 -24.234375 C 2.546875 -26.222656 3.039062 -27.953125 4.03125 -29.421875 C 5.019531 -30.890625 6.410156 -32.015625 8.203125 -32.796875 C 9.992188 -33.585938 12.046875 -33.984375 14.359375 -33.984375 C 17.804688 -33.984375 20.609375 -33.140625 22.765625 -31.453125 C 24.929688 -29.773438 26.128906 -27.4375 26.359375 -24.4375 L 18.953125 -24.4375 C 18.890625 -25.582031 18.398438 -26.53125 17.484375 -27.28125 C 16.578125 -28.039062 15.375 -28.421875 13.875 -28.421875 C 12.5625 -28.421875 11.507812 -28.082031 10.71875 -27.40625 C 9.9375 -26.738281 9.546875 -25.765625 9.546875 -24.484375 C 9.546875 -23.585938 9.84375 -22.84375 10.4375 -22.25 C 11.03125 -21.65625 11.765625 -21.171875 12.640625 -20.796875 C 13.523438 -20.429688 14.769531 -20.007812 16.375 -19.53125 C 18.539062 -18.894531 20.3125 -18.253906 21.6875 -17.609375 C 23.070312 -16.972656 24.257812 -16.015625 25.25 -14.734375 C 26.238281 -13.453125 26.734375 -11.773438 26.734375 -9.703125 C 26.734375 -7.910156 26.269531 -6.242188 25.34375 -4.703125 C 24.414062 -3.171875 23.054688 -1.945312 21.265625 -1.03125 C 19.472656 -0.113281 17.34375 0.34375 14.875 0.34375 Z M 14.875 0.34375 "/></g></g></g><g fill="#006ab3" fill-opacity="1"><g transform="translate(45.574159, 353.624977)"><g><path d="M 26.109375 -33.5 L 26.109375 -28.078125 L 17.1875 -28.078125 L 17.1875 0 L 10.46875 0 L 10.46875 -28.078125 L 1.53125 -28.078125 L 1.53125 -33.5 Z M 26.109375 -33.5 "/></g></g></g><g fill="#006ab3" fill-opacity="1"><g transform="translate(73.270107, 353.624977)"><g><path d="M 20.59375 0 L 13.203125 -13.0625 L 10.03125 -13.0625 L 10.03125 0 L 3.3125 0 L 3.3125 -33.5 L 15.890625 -33.5 C 18.484375 -33.5 20.691406 -33.039062 22.515625 -32.125 C 24.335938 -31.21875 25.703125 -29.988281 26.609375 -28.4375 C 27.523438 -26.882812 27.984375 -25.148438 27.984375 -23.234375 C 27.984375 -21.023438 27.34375 -19.03125 26.0625 -17.25 C 24.78125 -15.476562 22.878906 -14.253906 20.359375 -13.578125 L 28.375 0 Z M 10.03125 -18.09375 L 15.640625 -18.09375 C 17.472656 -18.09375 18.835938 -18.53125 19.734375 -19.40625 C 20.628906 -20.289062 21.078125 -21.519531 21.078125 -23.09375 C 21.078125 -24.625 20.628906 -25.8125 19.734375 -26.65625 C 18.835938 -27.507812 17.472656 -27.9375 15.640625 -27.9375 L 10.03125 -27.9375 Z M 10.03125 -18.09375 "/></g></g></g><g fill="#006ab3" fill-opacity="1"><g transform="translate(104.03805, 353.624977)"><g><path d="M 18.859375 0.34375 C 15.722656 0.34375 12.84375 -0.390625 10.21875 -1.859375 C 7.59375 -3.335938 5.515625 -5.378906 3.984375 -7.984375 C 2.453125 -10.597656 1.6875 -13.550781 1.6875 -16.84375 C 1.6875 -20.113281 2.453125 -23.050781 3.984375 -25.65625 C 5.515625 -28.257812 7.59375 -30.296875 10.21875 -31.765625 C 12.84375 -33.242188 15.722656 -33.984375 18.859375 -33.984375 C 22.023438 -33.984375 24.910156 -33.242188 27.515625 -31.765625 C 30.128906 -30.296875 32.195312 -28.257812 33.71875 -25.65625 C 35.238281 -23.050781 36 -20.113281 36 -16.84375 C 36 -13.550781 35.238281 -10.597656 33.71875 -7.984375 C 32.195312 -5.378906 30.125 -3.335938 27.5 -1.859375 C 24.875 -0.390625 21.992188 0.34375 18.859375 0.34375 Z M 18.859375 -5.65625 C 20.878906 -5.65625 22.65625 -6.113281 24.1875 -7.03125 C 25.726562 -7.945312 26.929688 -9.25 27.796875 -10.9375 C 28.660156 -12.632812 29.09375 -14.601562 29.09375 -16.84375 C 29.09375 -19.082031 28.660156 -21.039062 27.796875 -22.71875 C 26.929688 -24.40625 25.726562 -25.695312 24.1875 -26.59375 C 22.65625 -27.488281 20.878906 -27.9375 18.859375 -27.9375 C 16.847656 -27.9375 15.066406 -27.488281 13.515625 -26.59375 C 11.960938 -25.695312 10.753906 -24.40625 9.890625 -22.71875 C 9.023438 -21.039062 8.59375 -19.082031 8.59375 -16.84375 C 8.59375 -14.601562 9.023438 -12.632812 9.890625 -10.9375 C 10.753906 -9.25 11.960938 -7.945312 13.515625 -7.03125 C 15.066406 -6.113281 16.847656 -5.65625 18.859375 -5.65625 Z M 18.859375 -5.65625 "/></g></g></g><g fill="#006ab3" fill-opacity="1"><g transform="translate(141.717983, 353.624977)"><g><path d="M 31.96875 0 L 25.25 0 L 10.03125 -22.984375 L 10.03125 0 L 3.3125 0 L 3.3125 -33.546875 L 10.03125 -33.546875 L 25.25 -10.515625 L 25.25 -33.546875 L 31.96875 -33.546875 Z M 31.96875 0 "/></g></g></g><g fill="#006ab3" fill-opacity="1"><g transform="translate(176.997918, 353.624977)"><g><path d="M 26.640625 -23.421875 C 25.867188 -24.828125 24.8125 -25.898438 23.46875 -26.640625 C 22.125 -27.378906 20.554688 -27.75 18.765625 -27.75 C 16.785156 -27.75 15.023438 -27.300781 13.484375 -26.40625 C 11.953125 -25.507812 10.753906 -24.226562 9.890625 -22.5625 C 9.023438 -20.894531 8.59375 -18.972656 8.59375 -16.796875 C 8.59375 -14.554688 9.03125 -12.601562 9.90625 -10.9375 C 10.789062 -9.28125 12.015625 -8.003906 13.578125 -7.109375 C 15.148438 -6.210938 16.976562 -5.765625 19.0625 -5.765625 C 21.613281 -5.765625 23.707031 -6.441406 25.34375 -7.796875 C 26.976562 -9.160156 28.050781 -11.054688 28.5625 -13.484375 L 17.046875 -13.484375 L 17.046875 -18.625 L 35.1875 -18.625 L 35.1875 -12.765625 C 34.738281 -10.429688 33.773438 -8.269531 32.296875 -6.28125 C 30.828125 -4.300781 28.929688 -2.710938 26.609375 -1.515625 C 24.296875 -0.316406 21.695312 0.28125 18.8125 0.28125 C 15.582031 0.28125 12.660156 -0.441406 10.046875 -1.890625 C 7.441406 -3.347656 5.394531 -5.375 3.90625 -7.96875 C 2.425781 -10.5625 1.6875 -13.503906 1.6875 -16.796875 C 1.6875 -20.097656 2.425781 -23.050781 3.90625 -25.65625 C 5.394531 -28.257812 7.441406 -30.289062 10.046875 -31.75 C 12.660156 -33.207031 15.566406 -33.9375 18.765625 -33.9375 C 22.546875 -33.9375 25.828125 -33.015625 28.609375 -31.171875 C 31.390625 -29.335938 33.3125 -26.753906 34.375 -23.421875 Z M 26.640625 -23.421875 "/></g></g></g><g fill="#006ab3" fill-opacity="1"><g transform="translate(213.861865, 353.624977)"><g/></g></g><g fill="#006ab3" fill-opacity="1"><g transform="translate(225.28586, 353.624977)"><g><path d="M 1.6875 -16.796875 C 1.6875 -20.097656 2.425781 -23.050781 3.90625 -25.65625 C 5.394531 -28.257812 7.425781 -30.289062 10 -31.75 C 12.582031 -33.207031 15.472656 -33.9375 18.671875 -33.9375 C 22.410156 -33.9375 25.6875 -32.972656 28.5 -31.046875 C 31.320312 -29.128906 33.296875 -26.476562 34.421875 -23.09375 L 26.6875 -23.09375 C 25.914062 -24.6875 24.832031 -25.882812 23.4375 -26.6875 C 22.050781 -27.488281 20.445312 -27.890625 18.625 -27.890625 C 16.675781 -27.890625 14.941406 -27.429688 13.421875 -26.515625 C 11.898438 -25.609375 10.710938 -24.320312 9.859375 -22.65625 C 9.015625 -20.988281 8.59375 -19.035156 8.59375 -16.796875 C 8.59375 -14.585938 9.015625 -12.644531 9.859375 -10.96875 C 10.710938 -9.289062 11.898438 -7.992188 13.421875 -7.078125 C 14.941406 -6.171875 16.675781 -5.71875 18.625 -5.71875 C 20.445312 -5.71875 22.050781 -6.125 23.4375 -6.9375 C 24.832031 -7.75 25.914062 -8.957031 26.6875 -10.5625 L 34.421875 -10.5625 C 33.296875 -7.132812 31.332031 -4.46875 28.53125 -2.5625 C 25.738281 -0.664062 22.453125 0.28125 18.671875 0.28125 C 15.472656 0.28125 12.582031 -0.441406 10 -1.890625 C 7.425781 -3.347656 5.394531 -5.375 3.90625 -7.96875 C 2.425781 -10.5625 1.6875 -13.503906 1.6875 -16.796875 Z M 1.6875 -16.796875 "/></g></g></g><g fill="#006ab3" fill-opacity="1"><g transform="translate(262.149795, 353.624977)"><g><path d="M 18.859375 0.34375 C 15.722656 0.34375 12.84375 -0.390625 10.21875 -1.859375 C 7.59375 -3.335938 5.515625 -5.378906 3.984375 -7.984375 C 2.453125 -10.597656 1.6875 -13.550781 1.6875 -16.84375 C 1.6875 -20.113281 2.453125 -23.050781 3.984375 -25.65625 C 5.515625 -28.257812 7.59375 -30.296875 10.21875 -31.765625 C 12.84375 -33.242188 15.722656 -33.984375 18.859375 -33.984375 C 22.023438 -33.984375 24.910156 -33.242188 27.515625 -31.765625 C 30.128906 -30.296875 32.195312 -28.257812 33.71875 -25.65625 C 35.238281 -23.050781 36 -20.113281 36 -16.84375 C 36 -13.550781 35.238281 -10.597656 33.71875 -7.984375 C 32.195312 -5.378906 30.125 -3.335938 27.5 -1.859375 C 24.875 -0.390625 21.992188 0.34375 18.859375 0.34375 Z M 18.859375 -5.65625 C 20.878906 -5.65625 22.65625 -6.113281 24.1875 -7.03125 C 25.726562 -7.945312 26.929688 -9.25 27.796875 -10.9375 C 28.660156 -12.632812 29.09375 -14.601562 29.09375 -16.84375 C 29.09375 -19.082031 28.660156 -21.039062 27.796875 -22.71875 C 26.929688 -24.40625 25.726562 -25.695312 24.1875 -26.59375 C 22.65625 -27.488281 20.878906 -27.9375 18.859375 -27.9375 C 16.847656 -27.9375 15.066406 -27.488281 13.515625 -26.59375 C 11.960938 -25.695312 10.753906 -24.40625 9.890625 -22.71875 C 9.023438 -21.039062 8.59375 -19.082031 8.59375 -16.84375 C 8.59375 -14.601562 9.023438 -12.632812 9.890625 -10.9375 C 10.753906 -9.25 11.960938 -7.945312 13.515625 -7.03125 C 15.066406 -6.113281 16.847656 -5.65625 18.859375 -5.65625 Z M 18.859375 -5.65625 "/></g></g></g><g fill="#006ab3" fill-opacity="1"><g transform="translate(299.82974, 353.624977)"><g><path d="M 15.03125 -33.5 C 18.539062 -33.5 21.628906 -32.8125 24.296875 -31.4375 C 26.972656 -30.0625 29.039062 -28.101562 30.5 -25.5625 C 31.957031 -23.019531 32.6875 -20.066406 32.6875 -16.703125 C 32.6875 -13.335938 31.957031 -10.398438 30.5 -7.890625 C 29.039062 -5.378906 26.972656 -3.4375 24.296875 -2.0625 C 21.628906 -0.6875 18.539062 0 15.03125 0 L 3.3125 0 L 3.3125 -33.5 Z M 14.78125 -5.71875 C 18.300781 -5.71875 21.019531 -6.675781 22.9375 -8.59375 C 24.863281 -10.507812 25.828125 -13.210938 25.828125 -16.703125 C 25.828125 -20.191406 24.863281 -22.921875 22.9375 -24.890625 C 21.019531 -26.859375 18.300781 -27.84375 14.78125 -27.84375 L 10.03125 -27.84375 L 10.03125 -5.71875 Z M 14.78125 -5.71875 "/></g></g></g><g fill="#006ab3" fill-opacity="1"><g transform="translate(334.245692, 353.624977)"><g><path d="M 10.03125 -28.078125 L 10.03125 -19.6875 L 21.3125 -19.6875 L 21.3125 -14.359375 L 10.03125 -14.359375 L 10.03125 -5.46875 L 22.75 -5.46875 L 22.75 0 L 3.3125 0 L 3.3125 -33.546875 L 22.75 -33.546875 L 22.75 -28.078125 Z M 10.03125 -28.078125 "/></g></g></g></svg>